<svg xmlns="http://www.w3.org/2000/svg" viewBox="0 0 640 480" role="img" aria-label="Flag of Australia">
  <path fill="#012169" d="M0 0h640v480H0z"/>
  <path fill="#fff" d="M0 0h320v240H0z"/>
  <path fill="#012169" d="M0 0h320v240H0z"/>
  <path fill="#fff" d="M0 0v26.8L284.3 240H320v-26.8L35.7 0H0zm320 0v26.8L35.7 240H0v-26.8L284.3 0H320z"/>
  <path fill="#c8102e" d="M0 0v16l298.7 224H320v-16L21.3 0H0zm320 0v16L21.3 240H0v-16L298.7 0H320z"/>
  <path fill="#fff" d="M120 0v240h80V0h-80zM0 80v80h320V80H0z"/>
  <path fill="#c8102e" d="M140 0v240h40V0h-40zM0 100v40h320v-40H0z"/>
  <!-- Commonwealth Star (simplified) -->
  <g fill="#fff" transform="translate(170 300) scale(1)">
    <path d="M0-44l9 28h29l-23 17 9 28-24-17-24 17 9-28-23-17h29z"/>
  </g>
  <!-- Southern Cross (simplified stars) -->
  <g fill="#fff" transform="translate(450 120)">
    <path d="M0-18l4.5 14h14.5l-11.5 8.5 4.5 14-12-8.5-12 8.5 4.5-14-11.5-8.5h14.5z"/>
  </g>
  <g fill="#fff" transform="translate(520 170)">
    <path d="M0-14l3.5 11h11.5l-9.5 7 3.5 11-9-6.5-9 6.5 3.5-11-9.5-7h11.5z"/>
  </g>
  <g fill="#fff" transform="translate(470 220)">
    <path d="M0-16l4 12.5h13l-10.5 7.5 4 12.5-10.5-7.5-10.5 7.5 4-12.5-10.5-7.5h13z"/>
  </g>
  <g fill="#fff" transform="translate(560 240)">
    <path d="M0-18l4.5 14h14.5l-11.5 8.5 4.5 14-12-8.5-12 8.5 4.5-14-11.5-8.5h14.5z"/>
  </g>
</svg>
